<svg width="555" height="555" viewBox="0 0 555 555" fill="none" xmlns="http://www.w3.org/2000/svg"><path d="M485.938 276.883c-.091 61.25-25.559 116.568-66.546 155.911-11.228 10.772-23.551 20.357-36.878 28.482-11.32 6.937-23.368 12.871-35.965 17.709-10.863 4.198-22.183 7.484-33.867 9.857-14.058 2.831-28.572 4.291-43.542 4.291-22.639 0-44.365-3.468-64.903-9.95a213.546 213.546 0 01-36.697-15.426c-11.684-6.207-22.821-13.51-33.045-21.725a215.607 215.607 0 01-35.965-36.424c-28.663-36.786-45.642-82.977-45.642-133.183a215.66 215.66 0 0112.323-71.931c2.921-8.125 6.207-16.067 10.041-23.734 1.46-2.921 2.921-5.75 4.473-8.581.73-1.369 1.46-2.738 2.282-4.016 14.88-25.56 34.779-47.833 58.422-65.359 12.597-9.311 26.198-17.344 40.622-23.825.912-.366 1.825-.822 2.738-1.187l3.286-1.37c1.186-.456 2.464-1.003 3.652-1.46 2.282-.913 4.655-1.734 6.937-2.556 1.825-.639 3.651-1.278 5.478-1.826.365-.09.82-.273 1.185-.365 20.539-6.48 42.539-9.95 65.178-9.95 17.617 0 34.778 2.191 51.209 6.116 8.49 2.009 16.706 4.565 24.738 7.577 11.867 4.473 23.187 9.859 33.958 16.249 18.165 10.68 34.596 24.007 48.746 39.343.639.73 1.278 1.46 1.917 2.099.821.913 1.643 1.917 2.464 2.83a302.811 302.811 0 016.937 8.307c.093.091.183.183.274.274.093.091.184.274.275.365 1.733 2.282 3.469 4.564 5.112 6.846.273.365.547.73.821 1.187 1.095 1.46 2.099 3.012 3.103 4.564 23.461 34.597 36.971 76.131 36.879 120.861z" fill="url(#paint0_linear_176_13605)"/><path d="M186.302 200.229h-26.7v-52.001h26.7l17.299 26.101-17.299 25.9z" fill="url(#paint1_linear_176_13605)"/><path d="M159.598 200.229h-26.699v-52.001h26.699l17.301 26.101-17.301 25.9z" fill="url(#paint2_linear_176_13605)"/><path d="M239.699 200.229h-26.698v-52.001h26.698L257 174.329l-17.301 25.9z" fill="url(#paint3_linear_176_13605)"/><path d="M213.001 200.229H186.3v-52.001h26.701l17.3 26.101-17.3 25.9z" fill="url(#paint4_linear_176_13605)"/><path d="M293.099 200.229h-26.701v-52.001h26.701l17.299 26.101-17.299 25.9z" fill="url(#paint5_linear_176_13605)"/><path d="M266.4 200.229h-26.701v-52.001H266.4l17.299 26.101-17.299 25.9z" fill="url(#paint6_linear_176_13605)"/><path d="M346.502 200.229h-26.701v-52.001h26.701l17.299 26.101-17.299 25.9z" fill="url(#paint7_linear_176_13605)"/><path d="M319.801 200.229h-26.699v-52.001h26.699l17.301 26.101-17.301 25.9z" fill="url(#paint8_linear_176_13605)"/><path d="M399.899 200.229h-26.7v-52.001h26.7l17.301 26.101-17.301 25.9z" fill="url(#paint9_linear_176_13605)"/><path d="M373.201 200.229H346.5v-52.001h26.701l17.299 26.101-17.299 25.9z" fill="url(#paint10_linear_176_13605)"/><path d="M279.449 332.504l18.88 18.88-36.769 36.77-18.88-18.881 6.222-30.688 30.547-6.081z" fill="url(#paint11_linear_176_13605)"/><path d="M298.331 351.386l18.88 18.88-36.77 36.769-18.88-18.88 6.223-30.688 30.547-6.081z" fill="url(#paint12_linear_176_13605)"/><path d="M241.691 294.745l18.88 18.88-36.77 36.77-18.88-18.88 6.223-30.688 30.547-6.082z" fill="url(#paint13_linear_176_13605)"/><path d="M260.569 313.625l18.88 18.881-36.769 36.769-18.88-18.88 6.222-30.688 30.547-6.082z" fill="url(#paint14_linear_176_13605)"/><path d="M203.932 256.987l18.88 18.88-36.769 36.77-18.88-18.881 6.222-30.688 30.547-6.081z" fill="url(#paint15_linear_176_13605)"/><path d="M222.811 275.867l18.88 18.88-36.77 36.77-18.88-18.881 6.223-30.688 30.547-6.081z" fill="url(#paint16_linear_176_13605)"/><path d="M166.171 219.227l18.879 18.88-36.769 36.769-18.88-18.88 6.223-30.688 30.547-6.081z" fill="url(#paint17_linear_176_13605)"/><path d="M185.05 238.105l18.881 18.88-36.771 36.77-18.879-18.88 6.222-30.689 30.547-6.081z" fill="url(#paint18_linear_176_13605)"/><path d="M128.413 181.468l18.879 18.88-36.769 36.77-18.88-18.88 6.223-30.688 30.547-6.082z" fill="url(#paint19_linear_176_13605)"/><path d="M147.292 200.347l18.88 18.88-36.77 36.769-18.879-18.88 6.222-30.688 30.547-6.081z" fill="url(#paint20_linear_176_13605)"/><path d="M379.605 223.956l18.88-18.878 36.77 36.769-18.881 18.879-30.688-6.223-6.081-30.547z" fill="url(#paint21_linear_176_13605)"/><path d="M398.488 205.074l18.879-18.88 36.769 36.77-18.878 18.88-30.69-6.223-6.08-30.547z" fill="url(#paint22_linear_176_13605)"/><path d="M341.846 261.715l18.88-18.881 36.77 36.77-18.88 18.88-30.688-6.223-6.082-30.546z" fill="url(#paint23_linear_176_13605)"/><path d="M360.726 242.836l18.881-18.88 36.769 36.77-18.88 18.88-30.688-6.223-6.082-30.547z" fill="url(#paint24_linear_176_13605)"/><path d="M304.088 299.473l18.88-18.88 36.77 36.769-18.881 18.88-30.688-6.222-6.081-30.547z" fill="url(#paint25_linear_176_13605)"/><path d="M322.968 280.594l18.88-18.88 36.77 36.77-18.88 18.88-30.689-6.223-6.081-30.547z" fill="url(#paint26_linear_176_13605)"/><path d="M266.328 337.235l18.88-18.88 36.769 36.769-18.88 18.88-30.688-6.222-6.081-30.547z" fill="url(#paint27_linear_176_13605)"/><path d="M285.206 318.355l18.88-18.879 36.77 36.77-18.88 18.878-30.688-6.222-6.082-30.547z" fill="url(#paint28_linear_176_13605)"/><path d="M228.569 374.993l18.88-18.88 36.77 36.77-18.88 18.88-30.688-6.223-6.082-30.547z" fill="url(#paint29_linear_176_13605)"/><path d="M247.448 356.113l18.88-18.88 36.769 36.77-18.88 18.88-30.688-6.223-6.081-30.547z" fill="url(#paint30_linear_176_13605)"/><path d="M117.182 389.731l27.781-2.83h37.336l-26.896 8.138-38.221-5.308z" fill="url(#paint31_linear_176_13605)"/><path d="M431.618 389.731l-27.78-2.83h-37.336l26.719 8.138 38.397-5.308z" fill="url(#paint32_linear_176_13605)"/><path d="M366.683 342.485v84.228c0 6.015-2.477 11.678-6.547 15.925-4.246 4.246-9.909 6.547-15.925 6.547H204.776c-6.015 0-11.678-2.477-15.925-6.547-4.246-4.247-6.547-9.91-6.547-15.925v-84.228c0-3.891 1.061-7.785 3.009-11.323a21.62 21.62 0 018.316-8.14 22.408 22.408 0 0111.147-3.009h139.258c3.892 0 7.786 1.063 11.147 3.009 3.362 1.946 6.193 4.778 8.317 8.14 2.124 3.538 3.185 7.432 3.185 11.323z" fill="url(#paint33_linear_176_13605)"/><path d="M392.516 424.059H156.292v18.225h236.224v-18.225z" fill="url(#paint34_linear_176_13605)"/><path d="M153.991 389.555l28.311-2.654v37.158l-13.094 9.201-15.217-43.705z" fill="url(#paint35_linear_176_13605)"/><path d="M394.814 389.555l-28.136-2.654v37.158l13.095 9.201 15.041-43.705z" fill="url(#paint36_linear_176_13605)"/><path d="M383.666 455.909H168.145v54.499h215.521v-54.499z" fill="url(#paint37_linear_176_13605)"/><path d="M166.197 537.835h-7.432l6.548-27.248h18.934l-18.05 27.248z" fill="url(#paint38_linear_176_13605)"/><path d="M382.604 537.835h7.431l-6.547-27.248h-18.934l18.05 27.248z" fill="url(#paint39_linear_176_13605)"/><path d="M385.266 436.09c0 .355-6.194 6.903-6.371 7.256l-5.308 18.226c-1.592 5.839-9.377 10.617-17.164 10.617H191.862c-7.785 0-15.394-4.778-17.163-10.617l-5.31-18.226c-.176-.353-5.838-10.263-2.83-7.964 5.308-4.953 13.095-11.147 15.217-11.147h184.379c.532-.176 18.05 9.556 19.111 11.855z" fill="url(#paint40_linear_176_13605)"/><path d="M186.554 505.632c.177.531.177 1.238.177 1.769-.177.532-.355 1.061-.708 1.593a2.753 2.753 0 01-1.417 1.061c-.529.177-1.237.355-1.769.355h-32.735a6.19 6.19 0 01-3.893-1.416c-1.062-.885-1.946-2.124-2.3-3.362l-29.373-111.3c-.177-.531-.177-1.239-.177-1.77.177-.53.354-1.238.707-1.591a2.744 2.744 0 011.416-1.063c.531-.177 1.239-.354 1.769-.354h35.39c1.416 0 2.831.53 3.893 1.417 1.062.884 1.946 2.122 2.3 3.361l26.72 111.3z" fill="url(#paint41_linear_176_13605)"/><path d="M362.259 505.632c-.179.531-.177 1.238-.177 1.769.177.532.353 1.061.706 1.593.355.531.885.884 1.416 1.061.532.177 1.24.355 1.77.355h32.558a6.186 6.186 0 003.893-1.416c1.062-.885 1.946-2.124 2.301-3.362l29.373-111.3c.177-.531.177-1.239.177-1.77-.177-.53-.353-1.062-.708-1.591a2.744 2.744 0 00-1.416-1.063c-.53-.177-1.062-.354-1.77-.354h-35.389c-1.416 0-2.83.53-3.893 1.417-1.061.884-1.946 2.122-2.301 3.361l-26.54 111.3z" fill="url(#paint42_linear_176_13605)"/><path d="M275.907 475.374c90.775 0 164.208-13.094 164.208-29.196 0-16.104-73.612-29.197-164.208-29.197-90.774 0-164.207 13.093-164.207 29.197 0 16.278 73.433 29.196 164.207 29.196z" fill="url(#paint43_radial_176_13605)"/><path d="M275.904 440.515c66.178 0 119.793-2.83 119.793-6.192s-53.615-6.194-119.793-6.194-119.793 2.832-119.793 6.194 53.615 6.192 119.793 6.192z" fill="url(#paint44_radial_176_13605)"/><path d="M324.207 307.981c-7.963 4.07-18.402 3.894-26.187-.708-7.609-4.6-14.687-7.785-24.065-7.432-5.84.355-10.971 3.186-16.28 4.955-4.777 1.593-8.139 5.839-13.272 6.902-6.723 1.415-14.155-2.124-17.694-7.963-3.538-5.84-3.538-13.625-.53-19.995 2.123-4.6 4.247-7.962.885-12.74-.708-.885-1.416-1.946-2.124-3.009-.532-1.061-.708-2.299-.708-3.362-.353-6.369 4.07-11.5 6.902-16.986.706-1.24 1.238-2.654 1.414-4.07.355-3.715-2.83-6.548-4.599-9.733-5.84-10.262 1.592-23.179 9.201-30.258 4.423-4.246 10.086-6.192 15.04-9.732 2.299-1.591 4.247-3.539 6.548-5.131 4.068-2.654 8.493-3.184 13.269-3.008 13.45.708 29.197 9.202 33.445 22.649 2.83 9.202.353 20.349 10.262 26.188 3.007 1.769 6.548 2.654 8.67 5.31 4.602 5.661-.708 15.217 3.539 21.056 1.063 1.238 2.124 2.477 3.54 3.362 3.185 2.83 5.839 6.369 7.608 10.262 1.77 3.894 2.654 8.14 2.654 12.564 0 2.124-.353 4.246-1.238 6.194-1.239 2.654-3.54 4.599-5.662 6.369-3.186 3.717-6.724 6.194-10.618 8.316z" fill="url(#paint45_linear_176_13605)"/><path d="M386.319 395.216c-2.301 3.185-4.955 6.194-8.14 8.671-16.279 13.448-36.274 23.357-56.269 30.434-17.871 6.194-36.981 7.609-55.915 7.256-12.917-.177-25.835-3.186-38.574-5.84-13.095-2.654-25.835-6.37-38.045-11.147-9.731-3.893-18.579-9.024-20.88-20.173-.884-4.247-.353-9.201 2.832-12.563 3.716-3.892 9.908-4.247 15.394-4.247 31.142-.177 61.755 7.787 92.897 5.31 17.341-1.24 33.09-7.079 49.546-12.564 12.564-4.246 26.541-8.848 39.991-9.379 12.031-.353 25.126 12.21 17.163 24.242z" fill="url(#paint46_linear_176_13605)"/><path d="M237.863 381.061c-.353-.708-.885-1.416-1.238-2.3-4.425-8.14-7.963-16.81-10.441-25.658-.884-3.185-1.769-6.724-4.423-8.67-3.717-2.832-10.441-1.769-14.687-.885-1.946.354-4.07 1.238-5.131 3.008-1.77 2.832-1.062 8.848-.885 12.033 1.061 19.64 18.049 34.681 31.674 46.714 2.654 2.301 5.486 4.776 8.848 5.485 3.362.708 7.608-.709 8.846-4.07.885-2.476 0-5.132-1.061-7.431-1.946-4.07-4.247-7.787-7.079-11.149-1.591-2.122-3.184-4.423-4.423-7.077z" fill="url(#paint47_linear_176_13605)"/><path d="M246.704 311.875c-4.778 9.909-10.262 19.463-15.393 29.196-2.833 5.485-5.84 10.971-7.079 16.986-8.14.532-16.633-.531-24.773-1.416.354-10.97 5.309-21.233 9.732-31.318 4.602-10.263 9.556-20.35 13.625-30.966 3.362-8.493 10.264-18.934 20.879-14.864 8.14 3.185 7.787 13.979 6.724 21.233-.706 3.893-1.946 7.787-3.715 11.149z" fill="url(#paint48_linear_176_13605)"/><path d="M314.123 374.867c.355-.708.532-1.593.885-2.477 3.009-8.67 5.131-17.871 6.016-27.072.355-3.362.708-6.901 3.009-9.378 3.185-3.362 9.909-3.541 14.332-3.186 1.948.177 4.247.53 5.486 2.123 2.301 2.477 2.477 8.493 2.831 11.855 2.124 19.642-12.032 37.16-23.534 51.316-2.301 2.83-4.6 5.486-7.964 6.9-3.361 1.24-7.608.532-9.377-2.477-1.238-2.301-.885-5.131-.177-7.609a53.312 53.312 0 015.308-12.208c1.239-2.477 2.301-5.133 3.185-7.787z" fill="url(#paint49_linear_176_13605)"/><path d="M294.13 307.981c6.371 9.025 13.271 17.518 19.995 26.366 3.717 4.955 7.609 9.731 9.909 15.57 8.14-.884 16.28-3.362 24.242-5.484-2.123-10.794-8.67-20.172-14.686-29.196-6.194-9.378-12.741-18.579-18.58-28.135-4.777-7.786-13.272-16.987-23.003-11.148-7.608 4.424-5.486 15.218-3.185 21.941 1.061 3.539 3.007 6.901 5.308 10.086z" fill="url(#paint50_linear_176_13605)"/><path d="M317.667 383.715c-2.832-5.839-6.547-10.617-9.025-16.633-3.362-8.316-6.194-20.172-3.893-29.196 2.477-9.556 23.533 14.156 5.309-27.604-3.54-8.14-3.008-17.518-5.486-26.011-2.477-8.495-3.538-10.794-12.032-11.502-3.008-.176-6.017-.708-9.024-1.061a74.45 74.45 0 00-15.395 0h-.354a74.02 74.02 0 00-15.217 2.654c-3.009.708-5.839 1.769-8.848 2.477-8.316 1.946-8.848 4.6-9.909 13.271-1.061 8.67-.53 17.695-1.238 26.541-3.362 40.522 5.661 17.341 9.731 26.543 3.717 8.493 3.009 20.879 1.063 29.551-1.416 6.369-4.425 11.678-6.194 17.871-.177.531-.177 1.061-.177 1.416.177.353.353.53.532.708.176.177.53.353.884.53 11.679 4.954 24.242 5.662 36.629 5.486h3.538l3.186-.532c12.208-1.946 24.595-4.778 35.212-11.502.353-.176.53-.176.708-.529.176-.177.353-.532.53-.708.176-.355.176-.532 0-.885-.177-.355-.354-.708-.53-.885z" fill="url(#paint51_linear_176_13605)"/><path opacity=".5" d="M350.753 187.834l-1.947 14.332 18.049 23.004-35.389 106.345-.178 1.063-.177 1.414v.532l-1.592 12.031-5.132.355h-1.061l-3.717.354-90.951 7.255h-.884l-6.901.53h-.708l-.885-2.654-2.83-8.67-5.486-16.81-8.317-25.658-.529-1.592-4.249-13.272-6.724-20.703-1.414-4.246-4.601-14.333-4.247-13.271-.532-1.769-1.414-4.247-3.009-9.378c4.955-9.024 7.432-19.642 10.971-29.551.708-1.946 1.416-3.892 2.301-5.839 6.194-14.333 16.809-26.541 30.08-33.442 13.272-6.901 29.02-8.317 42.645-2.832 17.694 6.901 30.436 23.889 47.775 32.205 6.547 3.008 13.45 5.132 20.35 6.193 6.369 1.061 13.624 1.769 20.703 2.654z" fill="url(#paint52_linear_176_13605)"/><path opacity=".5" d="M331.463 186.949l-.885 13.803-.884 14.509-1.77 27.604-3.538 55.738-.885 14.156-1.239 20.349v2.124l-.177 1.592-.353 5.132-.532 7.077-90.774 7.608h-.177l-.176-.529-.353-1.24-.532-2.477-2.124-8.139-.353-1.592-.177-.708-.355-1.24-6.9-27.072-7.256-29.373-5.307-21.235-2.301-8.846-.885-3.185-4.6-18.579-5.839-23.004-4.778-18.934c.708-1.946 1.416-3.892 2.301-5.84 6.192-14.332 16.81-26.541 30.081-33.442s29.02-8.316 42.644-2.831c17.695 6.901 30.434 23.889 47.776 32.203 6.37 3.186 13.271 5.31 20.348 6.371z" fill="url(#paint53_linear_176_13605)"/><path d="M324.567 437.153l.177-.355c.353-1.414.885-2.83 1.593-4.246.884-1.416 1.592-3.185.884-4.6-.884-1.771-3.362-2.124-5.486-1.947-1.769.176-3.362.354-5.131.708-6.724 1.416-12.916 4.601-19.64 5.839-3.541.531-7.079.885-10.794.885-2.478 1.416-11.679 5.131-15.749 9.556.708.706 1.415 1.237 2.301 1.769 2.83 1.593 6.016 2.654 9.201 3.007 2.831.355 5.661.531 8.317.708 8.846-2.301 17.694-5.839 26.364-8.846 2.654-.708 5.308-1.593 7.963-2.478z" fill="url(#paint54_linear_176_13605)"/><path d="M330.58 332.755l-1.061-1.948c0-.177-.177-.353-.177-.53-.177-.355-.531-.531-.885-.708-.354-.176-.708-.176-1.061-.176l-108.824 9.023c-.353 0-.884.178-1.237.531-.355.353-.532.708-.708 1.061l-.708 2.301h.884l12.918 72.017 99.09-8.138 1.063-73.08.706-.353z" fill="url(#paint55_linear_176_13605)"/><path d="M275.902 255.604s.532 12.742 5.663 18.05c0 0-5.131 8.14-17.341 6.371-3.539-.532-6.901-1.77-10.086-3.362 0 0 3.185-10.971 1.416-21.765-1.238-9.379 20.348.706 20.348.706z" fill="url(#paint56_linear_176_13605)"/><path d="M283.869 220.747c-9.909-10.264-9.909-9.733-9.909-9.733-2.478 5.663-8.493 10.971-15.041 15.396-5.484 3.538-11.147 6.724-17.163 9.378-.178.353-.355.529-.355.884a7.284 7.284 0 000 3.892l.708 2.301c1.417 3.009 3.539 4.07 5.132 4.425a4.338 4.338 0 002.124 0l.53-.179 4.07 7.787c1.063 1.415 4.07 2.477 5.131 2.831 3.893 1.416 7.963 2.477 12.033 3.008 3.894.708 10.618-.531 13.448-3.008 2.477-2.123 3.715-4.778 4.07-9.555.177-3.893 0-7.963-.708-11.857l-2.654-13.801-1.416-1.769z" fill="url(#paint57_linear_176_13605)"/><path d="M329.519 407.957l-100.506 8.317-13.271-73.08v-.885c0-.353.177-.53.353-.885.177-.176.355-.53.708-.53.355-.178.532-.178.885-.354l110.415-9.202c.354 0 .708 0 .884.177.355.178.532.178.887.531.176.177.353.532.529.708.177.354.177.532.177.885l-1.061 74.318z" fill="url(#paint58_linear_176_13605)"/><path d="M281.921 447.947c4.425.707 8.849.707 13.095 1.061 1.769.177 3.717.354 5.486.354 3.007 0 5.839-.177 8.67-.354l6.371-.531c1.238 0 2.299-.353 3.362-.885 1.061-.884 1.946-1.945 2.299-3.362 1.239-2.477 2.477-4.954 3.54-7.432.353-1.414.885-2.83 1.593-4.246.884-1.416 1.592-3.185.884-4.6-.884-1.771-3.362-2.124-5.486-1.947-1.769.176-3.362.354-5.131.708-6.724 1.416-12.916 4.601-19.642 5.839a80.028 80.028 0 01-13.093 1.061c-3.539.178-8.848-.353-11.855 1.948-1.24.884-3.009 3.007-3.009 4.599 0 1.948 2.301 3.894 3.894 4.779a21.826 21.826 0 009.022 3.008z" fill="url(#paint59_linear_176_13605)"/><path opacity=".55" d="M283.158 374.691c.353-3.894-2.654-7.256-6.548-7.432-3.893-.354-7.255 2.654-7.432 6.547-.353 3.893 2.654 7.255 6.548 7.432 3.717.177 7.078-2.832 7.432-6.547z" fill="#fff"/><path d="M296.964 424.59c-3.007 2.123-7.431 4.07-10.616 6.193-3.185 1.945-22.119 10.44-16.28 16.988 1.24 1.237 3.185 1.237 4.955 1.237 10.086-.708 19.465-5.839 28.843-9.554l-6.902-14.864z" fill="url(#paint60_linear_176_13605)"/><path d="M275.552 431.667c-1.945-.706-9.554-3.362-11.5-4.246-3.009 1.063-.355 3.716-3.54 4.246-6.724 1.063-13.801.179-20.525 1.24-1.769.176-3.362.708-5.131 1.061-1.948.531-1.771-7.962-1.948-5.839 0 .355-1.414 8.493-1.414 8.671 5.308 1.238 9.378 4.068 14.685 5.131 7.079 1.415 14.333 3.186 21.588 4.424 3.715-1.77 7.964-3.362 11.855-5.487 2.478-1.237 4.955-3.007 6.901-5.131-4.423-1.946-9.378-3.362-10.971-4.07z" fill="url(#paint61_linear_176_13605)"/><path d="M259.98 444.762c-4.599-1.061-9.201-2.124-13.624-3.009-22.649-4.6-46.361-9.731-66.886-21.233-4.778-2.654-9.556-6.724-11.855-11.678-6.017-13.095 7.254-24.595 19.817-20.527 21.058 6.724 39.106 20.527 59.101 29.728l10.086 4.778c2.832 1.414 5.839 2.83 8.848 4.07l-5.487 17.871z" fill="url(#paint62_linear_176_13605)"/><path d="M298.203 422.997c3.007-1.416 19.995-15.04 23.357-16.633 20.525-15.217 27.427-27.072 48.484-33.796 12.563-4.07 26.011 7.432 19.818 20.525-2.3 4.955-11.678 12.74-16.28 15.395-20.348 11.324-65.116 31.143-69.716 32.027l-5.663-17.518z" fill="url(#paint63_linear_176_13605)"/><path d="M282.271 447.947c-4.246 1.415-8.671 2.123-12.741 3.186-1.769.529-3.539.884-5.308 1.237-2.83.532-5.839.885-8.67 1.062l-6.37.531c-1.238.353-2.654.177-3.716-.353-1.239-.532-2.124-1.593-2.655-2.656-1.591-2.122-3.184-4.423-4.6-6.9-.885-1.593-1.769-3.186-.885-4.955.532-.885 1.062-1.593 1.77-2.301.884-.884 1.769-1.769 2.83-2.299 3.54-2.124 7.256-1.416 11.149-.708 4.07.885 7.962 1.415 12.032 1.593 4.423 0 8.671-.355 13.094-1.063 3.539-.53 8.67-1.769 12.032 0 1.416.708 3.54 2.477 3.717 4.07.353 1.948-1.593 4.247-3.009 5.31-2.477 1.945-5.484 3.362-8.67 4.246z" fill="url(#paint64_linear_176_13605)"/><path d="M435.912 255.984c49.182 0 89.053-39.87 89.053-89.052 0-49.182-39.871-89.053-89.053-89.053-49.182 0-89.052 39.871-89.052 89.053 0 49.182 39.87 89.052 89.052 89.052z" fill="url(#paint65_linear_176_13605)"/><path d="M435.818 211.806c23.154 0 42.212-17.534 44.619-40.05-.053.148-.09.304-.108.472l-.096-.064-.111-.077c-.7-.481-2.006-1.381-4.386-1.953-1.976-.484-1.87-.684-1.712-.982.112-.212.25-.472-.313-.918-1.354-1.074-1.495-1.338-1.759-3.238-.264-1.883-2.165-.669-2.165-.669s.142 3.907 1.356 5.807c.654 1.026 1.505 1.381 2.171 1.659.567.235 1.001.417 1.066.911.142 1.073-2.833 3.096-5.948 4.03-3.096.933-4.048-.705-4.048-.705s-1.073-1.566-1.215-2.497c-.139-.934-.403-1.778-.95-2.447-.432-.562-.509-1.834-.602-3.319-.02-.328-.04-.667-.066-1.01-.141-1.884-.405-2.693-1.355-3.643-.95-.933-1.62 3.115-1.214 3.519.405.405 0 3.644 0 3.644s1.214 3.378 1.759 5.772c.528 2.393 1.075 2.886 2.834 3.43.235.074.486.143.743.216 1.673.467 3.601 1.005 2.777 2.76-.95 2.023-8.641 6.211-10.947 7.425-1.448.763-1.452 2.437-1.455 4.179-.002 1.029-.003 2.082-.304 2.984-.619 1.87-1.63 2.146-3.282 2.596-.509.14-1.078.295-1.717.518-1.582.559-1.396.882-1.137 1.326.182.313.397.686.064 1.244-.471.777-1.036.876-1.638.984-.434.076-.886.155-1.335.495-.537.403-.572.943-.607 1.466-.036.525-.071 1.031-.607 1.367-.312.199-.579.455-.87.732-.713.683-1.573 1.504-3.584 1.978-1.653.39-1.7.187-1.774-.13-.054-.227-.12-.511-.794-.679-.293-.074-.606-.133-.92-.194-1.436-.272-2.908-.553-2.461-2.112.278-.985-.035-1.794-.375-2.672-.309-.801-.64-1.659-.575-2.765.059-.972.259-1.312.434-1.608.241-.41.431-.733.113-2.546-.528-3.115 0-5.138 1.9-7.567 1.763-2.252 1.77-2.311 1.874-3.163l.027-.216c.055-.499-.337-.963-.855-1.58-.619-.734-1.416-1.682-1.855-3.154-.355-1.184.014-1.488.427-1.83.535-.442 1.146-.947.382-3.484-.889-2.959-.96-2.594-1.058-2.084-.052.267-.109.573-.297.464-.545-.335-1.356-.774-3.379-.229-1.312.353-1.433.249-1.773-.045a3.232 3.232 0 00-.972-.606c-.403-.173-1.031-.304-1.742-.452-2.028-.424-4.736-.987-4.84-3.084-.14-2.834-1.618-4.735-2.569-5.949-.541-.701.364-1.873 1.294-3.078.706-.915 1.426-1.847 1.539-2.606.282-1.76 1.496-2.974 2.711-3.379 1.231-.405 3.607-1.619 3.607-1.619s3.308-3.115 4.787-3.379c.693-.131 1.269.034 1.969.234.812.231 1.79.51 3.31.435.622-.027 1.194-.062 1.719-.094 1.862-.113 3.141-.191 4.088.234.765.333.567 1.267.35 2.283-.128.595-.261 1.219-.208 1.765.1 1.22 1.316 2.176 2.273 2.928.202.159.394.309.56.451.53.452 1.1.108 1.971-.419.688-.416 1.566-.946 2.762-1.288 1.715-.479 2.346.501 3.09 1.661.432.672.901 1.404 1.644 1.947 1.832 1.353 2.567.589 3.485-.364l.003-.003c.096-.099.195-.201.296-.302 1.092-1.091 1.618-1.76.545-2.306-.36-.179-.788-.285-1.273-.403-.982-.24-2.186-.535-3.461-1.62-1.297-1.105-1.011-1.333-.488-1.753.244-.195.54-.431.752-.817.594-1.065 4.107.212 5.833.838.27.099.497.181.662.236 1.215.405 2.165-1.355 2.023-3.52-.141-2.164-1.232-2.446-2.305-2.71-1.073-.264-2.974.546-3.643 2.305-.636 1.672-1.652 1.39-3.021 1.011l-.217-.06c-.719-.195-.999.013-1.322.252-.346.259-.743.554-1.792.416-1.416-.184-1.24-1.891-1.102-3.227.061-.574.113-1.08.027-1.366-.281-.95-1.636-2.305-2.304-.95-.363.726.067 1.779.469 2.762.338.827.656 1.604.463 2.095-.439 1.091-1.601-.545-2.146-2.024-.354-.964-.814-1.921-1.206-2.734-.216-.448-.411-.852-.555-1.19-.404-.95-2.57-.141-4.999 1.073-2.428 1.215-3.501 1.619-7.425 1.619-3.925 0-1.355-3.097-.141-4.047.895-.7 2.896-.226 4.156.073.45.106.807.191.982.191.669 0 .933-2.851.669-3.925-.176-.685.987-.62 2.378-.543.824.046 1.727.096 2.479-.002 1.216-.157 1.707-.658 2.219-1.179.348-.353.703-.715 1.301-.986.892-.413.907.164.924.834.011.442.025.924.291 1.19.686.669 4.874.669 7.707-.897 1.724-.953 2.802-.91 3.443-.884.412.017.643.026.745-.243.146-.379-.696-.672-1.752-1.04-.856-.298-1.852-.644-2.577-1.124-1.103-.744-.007-1.357 1.014-1.928.478-.267.939-.525 1.151-.782.669-.81-1.901-1.496-3.924-.722-1.369.512-1.007 1.217-.629 1.952.18.352.365.71.365 1.057 0 1.003-1.145 1.307-2.903 1.774l-.476.127c-1.192.321-1.401-.297-1.619-.943-.154-.45-.31-.914-.809-1.081-1.215-.405-1.356-2.428-1.356-2.886 0-.458 4.593-3.062 7.163-4.012.888-.331 1.672-.369 2.386-.251a44.677 44.677 0 00-20.728-5.064 44.701 44.701 0 00-18.071 3.788l-.015.015c-.328.38-.638.739-.863.843-.545.282-2.974 2.974-.562 2.288 1.001-.283 1.403-.518 1.692-.687.414-.241.595-.346 1.951-.263 1.867.1 3.019-.151 4.117-.39.246-.054.491-.108.74-.156.146-.029.283-.057.407-.085l.125-.027c.938-.205 1.263-.276 1.369.658.057.517-.397 1.093-.819 1.627-.47.594-.899 1.135-.537 1.487.288.281.834.301 1.334.32.691.026 1.288.049.972.754-.232.534-.468 1.486-.693 2.397-.288 1.162-.558 2.258-.786 2.337l-.018.006-.042.015c-.495.175-2.134.753-2.773-.021-.67-.81-3.643-3.784-4.593-3.52-.934.264-1.073 3.907-1.073 3.907s-2.429 1.918-3.379-.387c-.95-2.305-2.834-2.974-4.999-2.974-.496 0-1.032.024-1.549.046-1.02.046-1.967.088-2.389-.063a45.192 45.192 0 00-2.955 2.999l.129.012a.106.106 0 00.007-.003c1.525 0 2.166 1.297 2.812 2.607.33.668.661 1.34 1.112 1.846 1.284 1.436 1.596 1.737 3.052 3.145l.187.181c.903.865.841.906.516 1.127-.257.174-.681.46-.922 1.354-.319 1.188-.731 1.4-1.207 1.646-.336.173-.705.363-1.098.924-.724 1.031 1.224.808 2.67.643.453-.052.856-.098 1.114-.098 1.073 0 .809 2.306.809 2.306s2.428.809 2.975 1.759c.205.352.696.763 1.233 1.21.888.741 1.895 1.582 1.917 2.416 0 1.355-3.098 2.974-4.998 3.924-1.082.541-1.457 1.867-1.829 3.183-.282.997-.561 1.987-1.147 2.624-.829.905-1.507.853-2.591.771-.686-.052-1.536-.118-2.688.038-2.035.278-1.984.555-1.88 1.136.049.269.107.602-.02 1.029-.404 1.355-3.256 2.975-4.735 2.728-.772-.136-1.323-.389-1.787-.602-.436-.2-.794-.365-1.186-.365-.4 0-.276.563-.128 1.229.15.685.325 1.475-.013 1.885-.528.634-2.182.3-2.903.106l-.005-.003c4.088 20.572 22.24 36.078 44.013 36.078z" fill="url(#paint66_linear_176_13605)"/><path d="M467.305 134.973c-1.277-1.263-1.655-1.58-2.382-2.2-.472-.013-.943-.056-1.335-.091h-.005a35.703 35.703 0 00-.36-.032c-.96-.1-.356.42.511 1.164.355.305.754.648 1.109 1.001.726.727 1.455.488 2.208.241l.254-.083z" fill="url(#paint67_linear_176_13605)"/><path d="M103.635 255.984c49.182 0 89.052-39.87 89.052-89.052 0-49.182-39.87-89.053-89.052-89.053-49.182 0-89.053 39.871-89.053 89.053 0 49.182 39.87 89.052 89.053 89.052z" fill="url(#paint68_linear_176_13605)"/><path d="M143.605 132.567H64.184a6.11 6.11 0 00-6.11 6.109v48.875a6.11 6.11 0 006.11 6.109h79.421a6.109 6.109 0 006.109-6.109v-48.875a6.109 6.109 0 00-6.109-6.109z" fill="#fff"/><path d="M145.896 136.385H61.893v53.457h84.003v-53.457z" fill="url(#paint69_linear_176_13605)"/><path d="M104.186 144.022a1.91 1.91 0 100-3.819 1.91 1.91 0 000 3.819zm48.806 53.455H55.379a1.91 1.91 0 000 3.819h97.613a1.91 1.91 0 100-3.819z" fill="#fff"/><defs><linearGradient id="paint0_linear_176_13605" x1="247.18" y1="493.042" x2="278.227" y2="191.066" gradientUnits="userSpaceOnUse"><stop stop-color="#BDD4FF"/><stop offset="1" stop-color="#EDF3FF"/></linearGradient><linearGradient id="paint1_linear_176_13605" x1="158.267" y1="174.277" x2="203.783" y2="174.277" gradientUnits="userSpaceOnUse"><stop stop-color="#fff" stop-opacity="0"/><stop offset=".18" stop-color="#fff" stop-opacity=".23"/><stop offset=".4" stop-color="#fff" stop-opacity=".5"/><stop offset=".6" stop-color="#fff" stop-opacity=".72"/><stop offset=".78" stop-color="#fff" stop-opacity=".87"/><stop offset=".91" stop-color="#fff" stop-opacity=".97"/><stop offset="1" stop-color="#fff"/></linearGradient><linearGradient id="paint2_linear_176_13605" x1="131.558" y1="174.277" x2="177.072" y2="174.277" gradientUnits="userSpaceOnUse"><stop stop-color="#fff" stop-opacity="0"/><stop offset=".04" stop-color="#fff" stop-opacity=".07"/><stop offset=".2" stop-color="#fff" stop-opacity=".31"/><stop offset=".35" stop-color="#fff" stop-opacity=".52"/><stop offset=".5" stop-color="#fff" stop-opacity=".69"/><stop offset=".64" stop-color="#fff" stop-opacity=".83"/><stop offset=".77" stop-color="#fff" stop-opacity=".92"/><stop offset=".9" stop-color="#fff" stop-opacity=".98"/><stop offset="1" stop-color="#fff"/></linearGradient><linearGradient id="paint3_linear_176_13605" x1="211.675" y1="174.277" x2="257.192" y2="174.277" gradientUnits="userSpaceOnUse"><stop stop-color="#fff" stop-opacity="0"/><stop offset=".1" stop-color="#fff" stop-opacity=".17"/><stop offset=".23" stop-color="#fff" stop-opacity=".39"/><stop offset=".37" stop-color="#fff" stop-opacity=".58"/><stop offset=".5" stop-color="#fff" stop-opacity=".73"/><stop offset=".63" stop-color="#fff" stop-opacity=".85"/><stop offset=".76" stop-color="#fff" stop-opacity=".93"/><stop offset=".88" stop-color="#fff" stop-opacity=".98"/><stop offset="1" stop-color="#fff"/></linearGradient><linearGradient id="paint4_linear_176_13605" x1="184.973" y1="174.277" x2="230.488" y2="174.277" gradientUnits="userSpaceOnUse"><stop stop-color="#fff" stop-opacity="0"/><stop offset=".27" stop-color="#fff" stop-opacity=".32"/><stop offset=".53" stop-color="#fff" stop-opacity=".61"/><stop offset=".75" stop-color="#fff" stop-opacity=".82"/><stop offset=".91" stop-color="#fff" stop-opacity=".95"/><stop offset="1" stop-color="#fff"/></linearGradient><linearGradient id="paint5_linear_176_13605" x1="265.085" y1="174.277" x2="310.6" y2="174.277" gradientUnits="userSpaceOnUse"><stop stop-color="#fff" stop-opacity="0"/><stop offset=".11" stop-color="#fff" stop-opacity=".14"/><stop offset=".36" stop-color="#fff" stop-opacity=".44"/><stop offset=".58" stop-color="#fff" stop-opacity=".68"/><stop offset=".77" stop-color="#fff" stop-opacity=".85"/><stop offset=".91" stop-color="#fff" stop-opacity=".96"/><stop offset="1" stop-color="#fff"/></linearGradient><linearGradient id="paint6_linear_176_13605" x1="238.386" y1="174.277" x2="283.901" y2="174.277" gradientUnits="userSpaceOnUse"><stop stop-color="#fff" stop-opacity="0"/><stop offset=".11" stop-color="#fff" stop-opacity=".14"/><stop offset=".36" stop-color="#fff" stop-opacity=".44"/><stop offset=".58" stop-color="#fff" stop-opacity=".68"/><stop offset=".77" stop-color="#fff" stop-opacity=".85"/><stop offset=".91" stop-color="#fff" stop-opacity=".96"/><stop offset="1" stop-color="#fff"/></linearGradient><linearGradient id="paint7_linear_176_13605" x1="318.501" y1="174.277" x2="364.016" y2="174.277" gradientUnits="userSpaceOnUse"><stop stop-color="#fff" stop-opacity="0"/><stop offset=".27" stop-color="#fff" stop-opacity=".28"/><stop offset=".78" stop-color="#fff" stop-opacity=".79"/><stop offset="1" stop-color="#fff"/></linearGradient><linearGradient id="paint8_linear_176_13605" x1="291.789" y1="174.277" x2="337.304" y2="174.277" gradientUnits="userSpaceOnUse"><stop stop-color="#fff" stop-opacity="0"/><stop offset=".11" stop-color="#fff" stop-opacity=".14"/><stop offset=".36" stop-color="#fff" stop-opacity=".44"/><stop offset=".58" stop-color="#fff" stop-opacity=".68"/><stop offset=".77" stop-color="#fff" stop-opacity=".85"/><stop offset=".91" stop-color="#fff" stop-opacity=".96"/><stop offset="1" stop-color="#fff"/></linearGradient><linearGradient id="paint9_linear_176_13605" x1="371.912" y1="174.277" x2="417.426" y2="174.277" gradientUnits="userSpaceOnUse"><stop stop-color="#fff" stop-opacity="0"/><stop offset=".12" stop-color="#fff" stop-opacity=".18"/><stop offset=".3" stop-color="#fff" stop-opacity=".42"/><stop offset=".48" stop-color="#fff" stop-opacity=".63"/><stop offset=".64" stop-color="#fff" stop-opacity=".79"/><stop offset=".78" stop-color="#fff" stop-opacity=".91"/><stop offset=".91" stop-color="#fff" stop-opacity=".98"/><stop offset="1" stop-color="#fff"/></linearGradient><linearGradient id="paint10_linear_176_13605" x1="345.205" y1="174.277" x2="390.72" y2="174.277" gradientUnits="userSpaceOnUse"><stop stop-color="#fff" stop-opacity="0"/><stop offset=".04" stop-color="#fff" stop-opacity=".06"/><stop offset=".2" stop-color="#fff" stop-opacity=".31"/><stop offset=".35" stop-color="#fff" stop-opacity=".52"/><stop offset=".5" stop-color="#fff" stop-opacity=".69"/><stop offset=".64" stop-color="#fff" stop-opacity=".83"/><stop offset=".77" stop-color="#fff" stop-opacity=".92"/><stop offset=".9" stop-color="#fff" stop-opacity=".98"/><stop offset="1" stop-color="#fff"/></linearGradient><linearGradient id="paint11_linear_176_13605" x1="280.921" y1="370.678" x2="248.738" y2="338.495" gradientUnits="userSpaceOnUse"><stop stop-color="#fff" stop-opacity="0"/><stop offset=".18" stop-color="#fff" stop-opacity=".23"/><stop offset=".4" stop-color="#fff" stop-opacity=".5"/><stop offset=".6" stop-color="#fff" stop-opacity=".72"/><stop offset=".78" stop-color="#fff" stop-opacity=".87"/><stop offset=".91" stop-color="#fff" stop-opacity=".97"/><stop offset="1" stop-color="#fff"/></linearGradient><linearGradient id="paint12_linear_176_13605" x1="299.808" y1="389.565" x2="267.624" y2="357.381" gradientUnits="userSpaceOnUse"><stop stop-color="#fff" stop-opacity="0"/><stop offset=".04" stop-color="#fff" stop-opacity=".07"/><stop offset=".2" stop-color="#fff" stop-opacity=".31"/><stop offset=".35" stop-color="#fff" stop-opacity=".52"/><stop offset=".5" stop-color="#fff" stop-opacity=".69"/><stop offset=".64" stop-color="#fff" stop-opacity=".83"/><stop offset=".77" stop-color="#fff" stop-opacity=".92"/><stop offset=".9" stop-color="#fff" stop-opacity=".98"/><stop offset="1" stop-color="#fff"/></linearGradient><linearGradient id="paint13_linear_176_13605" x1="243.156" y1="332.913" x2="210.971" y2="300.728" gradientUnits="userSpaceOnUse"><stop stop-color="#fff" stop-opacity="0"/><stop offset=".1" stop-color="#fff" stop-opacity=".17"/><stop offset=".23" stop-color="#fff" stop-opacity=".39"/><stop offset=".37" stop-color="#fff" stop-opacity=".58"/><stop offset=".5" stop-color="#fff" stop-opacity=".73"/><stop offset=".63" stop-color="#fff" stop-opacity=".85"/><stop offset=".76" stop-color="#fff" stop-opacity=".93"/><stop offset=".88" stop-color="#fff" stop-opacity=".98"/><stop offset="1" stop-color="#fff"/></linearGradient><linearGradient id="paint14_linear_176_13605" x1="262.037" y1="351.794" x2="229.852" y2="319.609" gradientUnits="userSpaceOnUse"><stop stop-color="#fff" stop-opacity="0"/><stop offset=".27" stop-color="#fff" stop-opacity=".32"/><stop offset=".53" stop-color="#fff" stop-opacity=".61"/><stop offset=".75" stop-color="#fff" stop-opacity=".82"/><stop offset=".91" stop-color="#fff" stop-opacity=".95"/><stop offset="1" stop-color="#fff"/></linearGradient><linearGradient id="paint15_linear_176_13605" x1="205.39" y1="295.147" x2="173.205" y2="262.962" gradientUnits="userSpaceOnUse"><stop stop-color="#fff" stop-opacity="0"/><stop offset=".11" stop-color="#fff" stop-opacity=".14"/><stop offset=".36" stop-color="#fff" stop-opacity=".44"/><stop offset=".58" stop-color="#fff" stop-opacity=".68"/><stop offset=".77" stop-color="#fff" stop-opacity=".85"/><stop offset=".91" stop-color="#fff" stop-opacity=".96"/><stop offset="1" stop-color="#fff"/></linearGradient><linearGradient id="paint16_linear_176_13605" x1="224.269" y1="314.026" x2="192.086" y2="281.842" gradientUnits="userSpaceOnUse"><stop stop-color="#fff" stop-opacity="0"/><stop offset=".11" stop-color="#fff" stop-opacity=".14"/><stop offset=".36" stop-color="#fff" stop-opacity=".44"/><stop offset=".58" stop-color="#fff" stop-opacity=".68"/><stop offset=".77" stop-color="#fff" stop-opacity=".85"/><stop offset=".91" stop-color="#fff" stop-opacity=".96"/><stop offset="1" stop-color="#fff"/></linearGradient><linearGradient id="paint17_linear_176_13605" x1="167.619" y1="257.375" x2="135.435" y2="225.192" gradientUnits="userSpaceOnUse"><stop stop-color="#fff" stop-opacity="0"/><stop offset=".27" stop-color="#fff" stop-opacity=".28"/><stop offset=".78" stop-color="#fff" stop-opacity=".79"/><stop offset="1" stop-color="#fff"/></linearGradient><linearGradient id="paint18_linear_176_13605" x1="186.507" y1="276.264" x2="154.323" y2="244.08" gradientUnits="userSpaceOnUse"><stop stop-color="#fff" stop-opacity="0"/><stop offset=".11" stop-color="#fff" stop-opacity=".14"/><stop offset=".36" stop-color="#fff" stop-opacity=".44"/><stop offset=".58" stop-color="#fff" stop-opacity=".68"/><stop offset=".77" stop-color="#fff" stop-opacity=".85"/><stop offset=".91" stop-color="#fff" stop-opacity=".96"/><stop offset="1" stop-color="#fff"/></linearGradient><linearGradient id="paint19_linear_176_13605" x1="129.852" y1="219.61" x2="97.668" y2="187.425" gradientUnits="userSpaceOnUse"><stop stop-color="#fff" stop-opacity="0"/><stop offset=".12" stop-color="#fff" stop-opacity=".18"/><stop offset=".3" stop-color="#fff" stop-opacity=".42"/><stop offset=".48" stop-color="#fff" stop-opacity=".63"/><stop offset=".64" stop-color="#fff" stop-opacity=".79"/><stop offset=".78" stop-color="#fff" stop-opacity=".91"/><stop offset=".91" stop-color="#fff" stop-opacity=".98"/><stop offset="1" stop-color="#fff"/></linearGradient><linearGradient id="paint20_linear_176_13605" x1="148.737" y1="238.494" x2="116.553" y2="206.31" gradientUnits="userSpaceOnUse"><stop stop-color="#fff" stop-opacity="0"/><stop offset=".04" stop-color="#fff" stop-opacity=".06"/><stop offset=".2" stop-color="#fff" stop-opacity=".31"/><stop offset=".35" stop-color="#fff" stop-opacity=".52"/><stop offset=".5" stop-color="#fff" stop-opacity=".69"/><stop offset=".64" stop-color="#fff" stop-opacity=".83"/><stop offset=".77" stop-color="#fff" stop-opacity=".92"/><stop offset=".9" stop-color="#fff" stop-opacity=".98"/><stop offset="1" stop-color="#fff"/></linearGradient><linearGradient id="paint21_linear_176_13605" x1="417.779" y1="222.484" x2="385.595" y2="254.668" gradientUnits="userSpaceOnUse"><stop stop-color="#fff" stop-opacity="0"/><stop offset=".18" stop-color="#fff" stop-opacity=".23"/><stop offset=".4" stop-color="#fff" stop-opacity=".5"/><stop offset=".6" stop-color="#fff" stop-opacity=".72"/><stop offset=".78" stop-color="#fff" stop-opacity=".87"/><stop offset=".91" stop-color="#fff" stop-opacity=".97"/><stop offset="1" stop-color="#fff"/></linearGradient><linearGradient id="paint22_linear_176_13605" x1="436.666" y1="203.598" x2="404.482" y2="235.781" gradientUnits="userSpaceOnUse"><stop stop-color="#fff" stop-opacity="0"/><stop offset=".04" stop-color="#fff" stop-opacity=".07"/><stop offset=".2" stop-color="#fff" stop-opacity=".31"/><stop offset=".35" stop-color="#fff" stop-opacity=".52"/><stop offset=".5" stop-color="#fff" stop-opacity=".69"/><stop offset=".64" stop-color="#fff" stop-opacity=".83"/><stop offset=".77" stop-color="#fff" stop-opacity=".92"/><stop offset=".9" stop-color="#fff" stop-opacity=".98"/><stop offset="1" stop-color="#fff"/></linearGradient><linearGradient id="paint23_linear_176_13605" x1="380.014" y1="260.25" x2="347.829" y2="292.435" gradientUnits="userSpaceOnUse"><stop stop-color="#fff" stop-opacity="0"/><stop offset=".1" stop-color="#fff" stop-opacity=".17"/><stop offset=".23" stop-color="#fff" stop-opacity=".39"/><stop offset=".37" stop-color="#fff" stop-opacity=".58"/><stop offset=".5" stop-color="#fff" stop-opacity=".73"/><stop offset=".63" stop-color="#fff" stop-opacity=".85"/><stop offset=".76" stop-color="#fff" stop-opacity=".93"/><stop offset=".88" stop-color="#fff" stop-opacity=".98"/><stop offset="1" stop-color="#fff"/></linearGradient><linearGradient id="paint24_linear_176_13605" x1="398.895" y1="241.368" x2="366.712" y2="273.553" gradientUnits="userSpaceOnUse"><stop stop-color="#fff" stop-opacity="0"/><stop offset=".27" stop-color="#fff" stop-opacity=".32"/><stop offset=".53" stop-color="#fff" stop-opacity=".61"/><stop offset=".75" stop-color="#fff" stop-opacity=".82"/><stop offset=".91" stop-color="#fff" stop-opacity=".95"/><stop offset="1" stop-color="#fff"/></linearGradient><linearGradient id="paint25_linear_176_13605" x1="342.248" y1="298.016" x2="310.063" y2="330.2" gradientUnits="userSpaceOnUse"><stop stop-color="#fff" stop-opacity="0"/><stop offset=".11" stop-color="#fff" stop-opacity=".14"/><stop offset=".36" stop-color="#fff" stop-opacity=".44"/><stop offset=".58" stop-color="#fff" stop-opacity=".68"/><stop offset=".77" stop-color="#fff" stop-opacity=".85"/><stop offset=".91" stop-color="#fff" stop-opacity=".96"/><stop offset="1" stop-color="#fff"/></linearGradient><linearGradient id="paint26_linear_176_13605" x1="361.127" y1="279.136" x2="328.943" y2="311.321" gradientUnits="userSpaceOnUse"><stop stop-color="#fff" stop-opacity="0"/><stop offset=".11" stop-color="#fff" stop-opacity=".14"/><stop offset=".36" stop-color="#fff" stop-opacity=".44"/><stop offset=".58" stop-color="#fff" stop-opacity=".68"/><stop offset=".77" stop-color="#fff" stop-opacity=".85"/><stop offset=".91" stop-color="#fff" stop-opacity=".96"/><stop offset="1" stop-color="#fff"/></linearGradient><linearGradient id="paint27_linear_176_13605" x1="304.476" y1="335.787" x2="272.293" y2="367.97" gradientUnits="userSpaceOnUse"><stop stop-color="#fff" stop-opacity="0"/><stop offset=".27" stop-color="#fff" stop-opacity=".28"/><stop offset=".78" stop-color="#fff" stop-opacity=".79"/><stop offset="1" stop-color="#fff"/></linearGradient><linearGradient id="paint28_linear_176_13605" x1="323.367" y1="316.898" x2="291.182" y2="349.082" gradientUnits="userSpaceOnUse"><stop stop-color="#fff" stop-opacity="0"/><stop offset=".11" stop-color="#fff" stop-opacity=".14"/><stop offset=".36" stop-color="#fff" stop-opacity=".44"/><stop offset=".58" stop-color="#fff" stop-opacity=".68"/><stop offset=".77" stop-color="#fff" stop-opacity=".85"/><stop offset=".91" stop-color="#fff" stop-opacity=".96"/><stop offset="1" stop-color="#fff"/></linearGradient><linearGradient id="paint29_linear_176_13605" x1="266.711" y1="373.554" x2="234.526" y2="405.737" gradientUnits="userSpaceOnUse"><stop stop-color="#fff" stop-opacity="0"/><stop offset=".12" stop-color="#fff" stop-opacity=".18"/><stop offset=".3" stop-color="#fff" stop-opacity=".42"/><stop offset=".48" stop-color="#fff" stop-opacity=".63"/><stop offset=".64" stop-color="#fff" stop-opacity=".79"/><stop offset=".78" stop-color="#fff" stop-opacity=".91"/><stop offset=".91" stop-color="#fff" stop-opacity=".98"/><stop offset="1" stop-color="#fff"/></linearGradient><linearGradient id="paint30_linear_176_13605" x1="285.595" y1="354.669" x2="253.411" y2="386.854" gradientUnits="userSpaceOnUse"><stop stop-color="#fff" stop-opacity="0"/><stop offset=".04" stop-color="#fff" stop-opacity=".06"/><stop offset=".2" stop-color="#fff" stop-opacity=".31"/><stop offset=".35" stop-color="#fff" stop-opacity=".52"/><stop offset=".5" stop-color="#fff" stop-opacity=".69"/><stop offset=".64" stop-color="#fff" stop-opacity=".83"/><stop offset=".77" stop-color="#fff" stop-opacity=".92"/><stop offset=".9" stop-color="#fff" stop-opacity=".98"/><stop offset="1" stop-color="#fff"/></linearGradient><linearGradient id="paint31_linear_176_13605" x1="117.138" y1="390.981" x2="182.205" y2="390.981" gradientUnits="userSpaceOnUse"><stop offset=".05" stop-color="#fff"/><stop offset=".66" stop-color="#B5C7FF"/><stop offset=".72" stop-color="#B0C4FF"/><stop offset=".78" stop-color="#A1BAFF"/><stop offset=".86" stop-color="#89ABFF"/><stop offset=".93" stop-color="#6796FF"/><stop offset="1" stop-color="#4580FF"/></linearGradient><linearGradient id="paint32_linear_176_13605" x1="680.6" y1="-543.355" x2="1108.28" y2="-1959.07" gradientUnits="userSpaceOnUse"><stop offset=".05" stop-color="#fff"/><stop offset=".66" stop-color="#B5C7FF"/><stop offset=".72" stop-color="#B0C4FF"/><stop offset=".78" stop-color="#A1BAFF"/><stop offset=".86" stop-color="#89ABFF"/><stop offset=".93" stop-color="#6796FF"/><stop offset="1" stop-color="#4580FF"/></linearGradient><linearGradient id="paint33_linear_176_13605" x1="281.725" y1="439.721" x2="271.134" y2="359.983" gradientUnits="userSpaceOnUse"><stop stop-color="#77A7FF"/><stop offset="1" stop-color="#BDD4FF"/></linearGradient><linearGradient id="paint34_linear_176_13605" x1="156.305" y1="433.25" x2="392.508" y2="433.25" gradientUnits="userSpaceOnUse"><stop stop-color="#4580FF"/><stop offset=".17" stop-color="#3F76E2"/><stop offset=".38" stop-color="#386BC6"/><stop offset=".59" stop-color="#3464B2"/><stop offset=".79" stop-color="#315FA6"/><stop offset="1" stop-color="#305EA2"/></linearGradient><linearGradient id="paint35_linear_176_13605" x1="178.281" y1="454.678" x2="172.052" y2="414.185" gradientUnits="userSpaceOnUse"><stop stop-color="#77A7FF"/><stop offset="1" stop-color="#BDD4FF"/></linearGradient><linearGradient id="paint36_linear_176_13605" x1="383.221" y1="423.147" x2="376.99" y2="382.656" gradientUnits="userSpaceOnUse"><stop stop-color="#77A7FF"/><stop offset="1" stop-color="#BDD4FF"/></linearGradient><linearGradient id="paint37_linear_176_13605" x1="276.195" y1="457.611" x2="275.199" y2="545.205" gradientUnits="userSpaceOnUse"><stop stop-color="#BDD4FF"/><stop offset="1" stop-color="#E7EFFF"/></linearGradient><linearGradient id="paint38_linear_176_13605" x1="170.493" y1="466.294" x2="171.843" y2="546.699" gradientUnits="userSpaceOnUse"><stop stop-color="#77A7FF"/><stop offset="1" stop-color="#BDD4FF"/></linearGradient><linearGradient id="paint39_linear_176_13605" x1="376.322" y1="462.835" x2="377.672" y2="543.241" gradientUnits="userSpaceOnUse"><stop stop-color="#77A7FF"/><stop offset="1" stop-color="#BDD4FF"/></linearGradient><linearGradient id="paint40_linear_176_13605" x1="276.415" y1="404.385" x2="275.145" y2="462.169" gradientUnits="userSpaceOnUse"><stop stop-color="#77A7FF"/><stop offset="1" stop-color="#BDD4FF"/></linearGradient><linearGradient id="paint41_linear_176_13605" x1="162.486" y1="537.704" x2="145.565" y2="413.282" gradientUnits="userSpaceOnUse"><stop stop-color="#BDD4FF"/><stop offset="1" stop-color="#E7EFFF"/></linearGradient><linearGradient id="paint42_linear_176_13605" x1="405.703" y1="504.626" x2="388.783" y2="380.204" gradientUnits="userSpaceOnUse"><stop stop-color="#BDD4FF"/><stop offset="1" stop-color="#E7EFFF"/></linearGradient><linearGradient id="paint68_linear_176_13605" x1="85.334" y1="236.139" x2="81.999" y2="92.713" gradientUnits="userSpaceOnUse"><stop offset=".001" stop-color="#4687FF"/><stop offset=".999" stop-color="#77A7FF"/></linearGradient><linearGradient id="paint67_linear_176_13605" x1="423.319" y1="235.343" x2="464.886" y2="116.066" gradientUnits="userSpaceOnUse"><stop offset=".09" stop-color="#fff"/><stop offset=".35" stop-color="#FBFDFF"/><stop offset=".6" stop-color="#F0F5FF"/><stop offset=".84" stop-color="#DDE8FF"/><stop offset="1" stop-color="#CDF"/></linearGradient><linearGradient id="paint45_linear_176_13605" x1="248.707" y1="262.954" x2="323.175" y2="237.67" gradientUnits="userSpaceOnUse"><stop stop-color="#233B67"/><stop offset=".44" stop-color="#3B466F"/><stop offset="1" stop-color="#565378"/></linearGradient><linearGradient id="paint46_linear_176_13605" x1="277.55" y1="376.453" x2="285.183" y2="538.279" gradientUnits="userSpaceOnUse"><stop offset=".07" stop-color="#233B67"/><stop offset=".47" stop-color="#3B466F"/><stop offset="1" stop-color="#565378"/></linearGradient><linearGradient id="paint47_linear_176_13605" x1="209.588" y1="379.423" x2="221.122" y2="377.896" gradientUnits="userSpaceOnUse"><stop stop-color="#FFE8E1"/><stop offset=".92" stop-color="#F6CFBE"/></linearGradient><linearGradient id="paint48_linear_176_13605" x1="218.392" y1="272.305" x2="231.623" y2="374.591" gradientUnits="userSpaceOnUse"><stop stop-color="#FFA9B4"/><stop offset="1" stop-color="#F86E80"/></linearGradient><linearGradient id="paint49_linear_176_13605" x1="11440.4" y1="369.119" x2="11017.9" y2="369.119" gradientUnits="userSpaceOnUse"><stop stop-color="#FFE8E1"/><stop offset=".92" stop-color="#F6CFBE"/></linearGradient><linearGradient id="paint50_linear_176_13605" x1="5577.4" y1="33288.1" x2="6953.11" y2="41911.4" gradientUnits="userSpaceOnUse"><stop stop-color="#FFA9B4"/><stop offset="1" stop-color="#F86E80"/></linearGradient><linearGradient id="paint51_linear_176_13605" x1="10711.9" y1="55101.2" x2="13442.2" y2="69423.9" gradientUnits="userSpaceOnUse"><stop stop-color="#FFA9B4"/><stop offset="1" stop-color="#F86E80"/></linearGradient><linearGradient id="paint52_linear_176_13605" x1="274.86" y1="349.581" x2="273.173" y2="290.487" gradientUnits="userSpaceOnUse"><stop stop-color="#fff"/><stop offset="1" stop-color="#fff" stop-opacity="0"/></linearGradient><linearGradient id="paint53_linear_176_13605" x1="275.436" y1="351.554" x2="269.204" y2="286.096" gradientUnits="userSpaceOnUse"><stop stop-color="#fff"/><stop offset=".87" stop-color="#fff" stop-opacity="0"/></linearGradient><linearGradient id="paint54_linear_176_13605" x1="299.429" y1="461.501" x2="298.708" y2="425.603" gradientUnits="userSpaceOnUse"><stop stop-color="#F9EAD4"/><stop offset="1" stop-color="#F7A967"/></linearGradient><linearGradient id="paint55_linear_176_13605" x1="273.428" y1="366.776" x2="278.778" y2="334.007" gradientUnits="userSpaceOnUse"><stop stop-color="#BDD4FF"/><stop offset="1" stop-color="#E7EFFF"/></linearGradient><linearGradient id="paint56_linear_176_13605" x1="268.073" y1="276.703" x2="267.056" y2="258.721" gradientUnits="userSpaceOnUse"><stop stop-color="#FFE8E1"/><stop offset=".73" stop-color="#F6CFBE"/></linearGradient><linearGradient id="paint57_linear_176_13605" x1="273.554" y1="248.097" x2="258.119" y2="223.502" gradientUnits="userSpaceOnUse"><stop stop-color="#FFE8E1"/><stop offset=".71" stop-color="#F8D5C7"/><stop offset=".92" stop-color="#F6CFBE"/></linearGradient><linearGradient id="paint58_linear_176_13605" x1="296.113" y1="433.018" x2="268.576" y2="334.347" gradientUnits="userSpaceOnUse"><stop stop-color="#BDD4FF"/><stop offset="1" stop-color="#E7EFFF"/></linearGradient><linearGradient id="paint59_linear_176_13605" x1="311.952" y1="456.223" x2="303.23" y2="442.707" gradientUnits="userSpaceOnUse"><stop offset=".49" stop-color="#FFE8E1"/><stop offset=".92" stop-color="#F6CFBE"/></linearGradient><linearGradient id="paint60_linear_176_13605" x1="289.34" y1="446.58" x2="282.483" y2="434.526" gradientUnits="userSpaceOnUse"><stop stop-color="#FFE8E1"/><stop offset=".37" stop-color="#FCE0D6"/><stop offset=".92" stop-color="#F6CFBE"/></linearGradient><linearGradient id="paint61_linear_176_13605" x1="2170.54" y1="13644.2" x2="2124.83" y2="13328.3" gradientUnits="userSpaceOnUse"><stop stop-color="#FFE8E1"/><stop offset=".92" stop-color="#F6CFBE"/></linearGradient><linearGradient id="paint62_linear_176_13605" x1="223.419" y1="409.001" x2="201.662" y2="434.286" gradientUnits="userSpaceOnUse"><stop offset=".07" stop-color="#233B67"/><stop offset=".16" stop-color="#2B3F6A"/><stop offset=".47" stop-color="#434A72"/><stop offset=".75" stop-color="#515176"/><stop offset="1" stop-color="#565378"/></linearGradient><linearGradient id="paint63_linear_176_13605" x1="339.007" y1="401.346" x2="355.309" y2="420.29" gradientUnits="userSpaceOnUse"><stop offset=".07" stop-color="#233B67"/><stop offset=".16" stop-color="#2B3F6A"/><stop offset=".47" stop-color="#434A72"/><stop offset=".75" stop-color="#515176"/><stop offset="1" stop-color="#565378"/></linearGradient><linearGradient id="paint64_linear_176_13605" x1="269.084" y1="451.262" x2="264.093" y2="435.288" gradientUnits="userSpaceOnUse"><stop stop-color="#FFE8E1"/><stop offset=".37" stop-color="#FCE0D6"/><stop offset=".92" stop-color="#F6CFBE"/></linearGradient><linearGradient id="paint65_linear_176_13605" x1="417.611" y1="236.139" x2="414.276" y2="92.713" gradientUnits="userSpaceOnUse"><stop offset=".001" stop-color="#4687FF"/><stop offset=".999" stop-color="#77A7FF"/></linearGradient><linearGradient id="paint66_linear_176_13605" x1="423.319" y1="235.343" x2="464.887" y2="116.066" gradientUnits="userSpaceOnUse"><stop offset=".09" stop-color="#fff"/><stop offset=".35" stop-color="#FBFDFF"/><stop offset=".6" stop-color="#F0F5FF"/><stop offset=".84" stop-color="#DDE8FF"/><stop offset="1" stop-color="#CDF"/></linearGradient><linearGradient id="paint69_linear_176_13605" x1="103.896" y1="202.636" x2="103.896" y2="131.142" gradientUnits="userSpaceOnUse"><stop offset=".001" stop-color="#4687FF"/><stop offset=".999" stop-color="#77A7FF"/></linearGradient><radialGradient id="paint44_radial_176_13605" cx="0" cy="0" r="1" gradientUnits="userSpaceOnUse" gradientTransform="matrix(120.41 0 0 5.47317 280.339 562.604)"><stop offset=".2" stop-color="#233B67" stop-opacity=".5"/><stop offset=".61" stop-color="#2B426D" stop-opacity=".48"/><stop offset=".76" stop-color="#485C81" stop-opacity=".42"/><stop offset=".86" stop-color="#7A89A3" stop-opacity=".3"/><stop offset=".95" stop-color="#C2C9D5" stop-opacity=".14"/><stop offset="1" stop-color="#fff" stop-opacity="0"/></radialGradient><radialGradient id="paint43_radial_176_13605" cx="0" cy="0" r="1" gradientUnits="userSpaceOnUse" gradientTransform="matrix(-164.229 0 0 -37.5892 275.862 446.499)"><stop stop-color="#243A67" stop-opacity=".5"/><stop offset=".69" stop-color="#96BBFF" stop-opacity="0"/></radialGradient></defs></svg>